<?xml version="1.0" standalone="no"?><!DOCTYPE svg PUBLIC "-//W3C//DTD SVG 1.1//EN" "http://www.w3.org/Graphics/SVG/1.1/DTD/svg11.dtd"><svg t="1581144965486" class="icon" viewBox="0 0 1024 1024" version="1.1" xmlns="http://www.w3.org/2000/svg" p-id="4318" xmlns:xlink="http://www.w3.org/1999/xlink" width="200" height="200"><defs><style type="text/css"></style></defs><path d="M267.377778 933.091556c-74.069333-13.994667-127.715556-36.579556-159.516445-67.185778-22.641778-21.902222-33.450667-47.445333-32.881777-78.108445 1.934222-104.106667 238.705778-130.389333 321.422222-131.413333a37.489778 37.489778 0 0 0 37.091555-37.432889v-49.038222c0-11.377778-5.12-22.186667-14.108444-29.297778-36.408889-29.070222-68.835556-74.922667-88.746667-125.610667a362.382222 362.382222 0 0 1-17.351111-202.183111c10.467556-53.703111 44.088889-93.013333 100.010667-116.849777 26.851556-11.150222 55.239111-18.147556 84.195555-20.764445a283.875556 283.875556 0 0 1 85.902223 20.252445c56.888889 23.665778 91.022222 63.260444 101.546666 117.532444 13.425778 69.404444 7.566222 139.377778-17.237333 202.296889-19.911111 50.744889-52.224 96.540444-88.576 125.610667a37.774222 37.774222 0 0 0-14.051556 29.411555v15.416889c0 18.545778 15.018667 33.564444 33.564445 33.564444h9.614222c17.521778 0 31.800889-14.222222 31.800889-31.857777 40.732444-36.977778 74.979556-87.665778 97.393778-144.725334a438.328889 438.328889 0 0 0 21.048889-243.939555c-15.36-79.36-65.991111-138.979556-146.318223-172.487111A356.693333 356.693333 0 0 0 500.394667 0.341333V0a355.441778 355.441778 0 0 0-113.948445 25.998222c-80.554667 33.507556-131.299556 93.070222-146.659555 172.373334a436.906667 436.906667 0 0 0 21.048889 244.053333c21.788444 55.125333 54.556444 104.334222 93.582222 140.913778-35.669333 2.56-90.112 8.362667-145.294222 21.617777-56.32 13.653333-102.001778 32.426667-135.68 55.751112-59.505778 41.415111-72.704 91.192889-73.386667 125.724444-0.967111 51.882667 17.806222 96.824889 55.751111 133.404444C127.715556 989.070222 265.784889 1024 467.057778 1024c6.200889 0 12.060444-0.056889 17.635555-0.227556a38.4 38.4 0 0 0 37.262223-40.504888 39.253333 39.253333 0 0 0-39.367112-37.034667c-95.288889 0.341333-167.025778-3.982222-215.153777-13.084445z" fill="#333333" p-id="4319"></path><path d="M626.744889 925.752889l38.456889 38.513778 90.225778-33.166223-95.573334-95.573333-33.109333 90.225778z" fill="#AFCD50" p-id="4320"></path><path d="M775.395556 950.954667c-1.365333 1.365333-2.730667 1.365333-3.982223 2.673777l-183.182222 66.332445c-5.290667 1.365333-10.581333 0-13.255111-2.616889-3.982222-3.982222-5.290667-9.329778-2.616889-13.312l66.332445-183.068444c0-1.365333 1.308444-2.673778 2.616888-3.982223l163.271112-165.888c17.180444 17.237333 33.109333 31.857778 33.109333 31.857778l-128.682667 128.682667c-2.673778 2.673778-2.673778 5.347556-2.673778 7.964444 0 2.673778 1.365333 5.347556 2.673778 7.964445 2.673778 1.365333 5.290667 2.673778 7.964445 2.673777a18.887111 18.887111 0 0 0 7.964444-2.673777l128.682667-128.682667 41.130666 39.822222-128.682666 128.682667a10.410667 10.410667 0 0 0 0 14.620444 14.222222 14.222222 0 0 0 7.964444 2.616889 18.887111 18.887111 0 0 0 7.964445-2.616889l128.682666-128.739555 31.857778 31.857778-167.196444 165.831111z m230.798222-230.855111l-51.768889 51.768888-135.281778-135.395555 51.768889-51.712c18.545778-18.545778 49.038222-18.545778 66.332444 0l67.697778 67.697778c19.854222 18.545778 19.854222 49.095111 1.251556 67.697777z" fill="#333333" p-id="4321"></path></svg>